<?xml version="1.0" standalone="no"?>
<!DOCTYPE svg PUBLIC "-//W3C//DTD SVG 20010904//EN"
 "http://www.w3.org/TR/2001/REC-SVG-20010904/DTD/svg10.dtd">
<svg version="1.0" xmlns="http://www.w3.org/2000/svg"
 width="512.000000pt" height="512.000000pt" viewBox="0 0 512.000000 512.000000"
 preserveAspectRatio="xMidYMid meet">

<g transform="translate(0.000000,512.000000) scale(0.100000,-0.100000)"
fill="#000000" stroke="none">
<path d="M2345 4316 c-79 -36 -129 -104 -141 -193 l-6 -49 -64 -28 c-154 -67
-346 -225 -446 -366 -65 -91 -123 -211 -153 -315 -52 -180 -56 -443 -9 -625
20 -77 73 -207 102 -247 11 -15 27 -56 36 -90 21 -84 49 -136 103 -194 l45
-48 -28 -93 c-54 -184 -29 -313 82 -418 96 -91 218 -130 409 -130 61 0 149 5
197 11 60 7 125 7 217 0 333 -27 542 43 631 211 29 53 35 76 38 146 4 74 1 93
-28 178 l-32 95 52 54 c65 70 101 147 107 234 4 51 13 79 38 121 40 68 79 167
102 256 24 97 25 371 1 469 -80 330 -292 592 -604 748 -68 34 -71 37 -77 77
-8 61 -54 129 -112 165 -45 28 -56 30 -144 31 -53 0 -109 6 -124 12 -48 20
-136 14 -192 -12z m491 -445 c219 -85 416 -277 504 -491 59 -143 76 -328 44
-486 -16 -82 -84 -236 -126 -288 l-24 -28 -50 24 c-27 14 -67 31 -89 38 -98
31 -132 57 -175 129 -22 38 -40 73 -40 77 0 4 18 35 40 68 64 99 73 129 72
235 -2 102 -15 188 -39 261 -30 89 -169 350 -256 482 l-18 26 42 -9 c23 -6 75
-23 115 -38z m103 -1235 c18 -14 77 -41 130 -62 120 -46 145 -66 136 -113 -19
-99 -119 -141 -263 -110 l-50 10 -17 62 c-10 34 -24 89 -31 122 -14 64 -19
197 -7 209 4 3 21 -16 38 -44 17 -27 46 -61 64 -74z m-169 -316 c69 -17 166
-33 216 -37 l92 -6 5 -86 c3 -59 15 -115 37 -181 37 -112 35 -147 -14 -196
-64 -64 -150 -75 -511 -65 -60 1 -157 -1 -214 -6 -194 -16 -335 13 -382 79
-32 45 -33 93 -4 188 14 47 31 126 37 176 l12 91 90 7 c50 3 156 22 236 41
172 41 213 41 400 -5z"/>
<path d="M3021 3034 c-13 -9 -29 -32 -37 -50 -20 -48 0 -94 51 -118 32 -15 44
-16 76 -7 117 35 98 191 -23 191 -24 0 -54 -7 -67 -16z"/>
<path d="M2386 2275 c-22 -23 -20 -32 14 -66 25 -26 36 -30 72 -27 40 3 43 5
43 32 0 51 -94 95 -129 61z"/>
<path d="M2666 2275 c-45 -16 -57 -30 -54 -65 3 -21 9 -25 38 -28 73 -5 134
69 81 98 -23 12 -17 12 -65 -5z"/>
<path d="M3628 1502 c-43 -3 -48 -5 -48 -28 0 -22 4 -24 50 -24 l50 0 0 -179
c0 -164 2 -180 20 -204 24 -31 72 -42 135 -33 41 7 45 10 45 36 l0 29 -54 -6
c-83 -9 -86 0 -86 223 l0 182 -32 3 c-18 2 -54 3 -80 1z"/>
<path d="M4003 1502 c-49 -3 -53 -5 -53 -28 0 -22 4 -24 50 -24 l50 0 0 -157
c0 -87 5 -175 11 -195 14 -53 54 -72 132 -65 32 3 61 7 63 10 3 3 2 16 -1 29
-6 23 -10 25 -54 20 -79 -7 -81 -3 -81 218 l0 188 -32 3 c-18 2 -57 3 -85 1z"/>
<path d="M2100 1270 l0 -230 30 0 c30 0 30 0 30 59 l0 59 42 4 c41 4 41 4 81
-59 37 -60 41 -63 79 -63 l40 0 -23 38 c-13 20 -33 53 -46 72 -24 36 -30 60
-14 60 13 0 48 77 57 123 l6 38 -32 -3 c-30 -3 -34 -8 -46 -48 -17 -58 -51
-90 -103 -97 l-41 -6 0 142 0 141 -30 0 -30 0 0 -230z"/>
<path d="M970 1260 l0 -220 28 -1 c146 -4 212 19 251 90 20 36 24 58 24 125 0
160 -66 225 -230 226 l-73 0 0 -220z m181 137 c40 -27 58 -71 58 -145 1 -99
-35 -142 -131 -156 l-48 -7 0 165 0 166 44 0 c28 0 55 -8 77 -23z"/>
<path d="M2850 1261 l0 -221 30 0 30 0 0 64 0 63 65 6 c123 12 169 55 170 159
0 105 -48 141 -197 146 l-98 4 0 -221z m211 130 c27 -33 25 -93 -4 -127 -20
-23 -34 -28 -85 -32 l-62 -4 0 97 0 97 66 -4 c55 -3 70 -8 85 -27z"/>
<path d="M1344 1355 c-4 -8 -5 -69 -3 -134 3 -102 7 -124 25 -148 42 -56 135
-53 165 5 l14 27 3 -37 c3 -41 14 -45 81 -32 24 5 31 12 31 30 0 16 -7 24 -22
26 -22 3 -23 6 -26 141 l-3 138 -32 -3 -32 -3 -5 -123 c-5 -135 -13 -152 -70
-152 -51 0 -60 24 -60 158 l0 122 -30 0 c-18 0 -33 -6 -36 -15z"/>
<path d="M1792 1351 c-50 -32 -72 -76 -72 -146 0 -123 64 -179 197 -173 39 2
74 5 76 8 3 3 3 16 0 30 -4 24 -7 25 -73 22 -64 -3 -70 -2 -101 26 -31 28 -34
36 -34 85 0 45 5 60 24 81 32 34 96 36 135 5 l28 -22 21 22 21 21 -27 27 c-23
23 -37 28 -94 31 -55 2 -74 -1 -101 -17z"/>
<path d="M3282 1350 c-18 -11 -40 -36 -48 -55 -20 -49 -18 -152 4 -194 50 -92
195 -93 244 -1 23 44 25 158 3 201 -35 66 -135 90 -203 49z m135 -67 c12 -18
18 -46 18 -84 0 -47 -5 -62 -24 -83 -68 -72 -152 21 -121 134 12 45 31 59 77
60 24 0 37 -7 50 -27z"/>
<path d="M4414 1356 c-84 -37 -84 -130 0 -160 23 -9 60 -20 83 -26 56 -14 73
-43 38 -66 -20 -13 -42 -16 -105 -12 l-80 5 0 -27 c0 -33 18 -40 105 -40 116
0 165 29 165 98 0 62 -20 77 -148 112 -24 6 -46 18 -49 27 -11 29 26 43 109
43 l78 0 0 30 0 30 -82 0 c-47 -1 -97 -7 -114 -14z"/>
</g>
</svg>
